{
  "asset": {
    "version": "2.0",
    "generator": "portfolio-manager demo"
  },
  "scene": 0,
  "scenes": [
    {
      "name": "split_keyboard_plate",
      "nodes": [
        0
      ]
    }
  ],
  "nodes": [
    {
      "mesh": 0,
      "name": "split_keyboard_plate"
    }
  ],
  "meshes": [
    {
      "name": "split_keyboard_plate",
      "primitives": [
        {
          "attributes": {
            "POSITION": 0,
            "NORMAL": 1
          },
          "indices": 2,
          "material": 0
        }
      ]
    }
  ],
  "materials": [
    {
      "name": "demo",
      "pbrMetallicRoughness": {
        "baseColorFactor": [
          0.54,
          0.36,
          0.96,
          1
        ],
        "metallicFactor": 0.1,
        "roughnessFactor": 0.6
      }
    }
  ],
  "accessors": [
    {
      "bufferView": 0,
      "componentType": 5126,
      "count": 8,
      "type": "VEC3",
      "min": [
        -1,
        -1,
        -1
      ],
      "max": [
        1,
        1,
        1
      ]
    },
    {
      "bufferView": 1,
      "componentType": 5126,
      "count": 8,
      "type": "VEC3"
    },
    {
      "bufferView": 2,
      "componentType": 5123,
      "count": 36,
      "type": "SCALAR"
    }
  ],
  "bufferViews": [
    {
      "buffer": 0,
      "byteOffset": 0,
      "byteLength": 96
    },
    {
      "buffer": 0,
      "byteOffset": 96,
      "byteLength": 96
    },
    {
      "buffer": 0,
      "byteOffset": 192,
      "byteLength": 72
    }
  ],
  "buffers": [
    {
      "byteLength": 264,
      "uri": "data:application/octet-stream;base64,"
    }
  ]
}